<svg width="242" height="35" viewBox="0 0 242 35" fill="none" xmlns="http://www.w3.org/2000/svg">
<path d="M92.1724 21.8359V25H80.8345V21.8359H92.1724ZM82.0649 3.67188V25H78.0366V3.67188H82.0649ZM90.6929 12.4756V15.5664H80.8345V12.4756H90.6929ZM92.1284 3.67188V6.85059H80.8345V3.67188H92.1284ZM98.4712 12.5342V25H94.604V9.15039H98.2368L98.4712 12.5342ZM97.856 16.5039H96.7134C96.7231 15.3516 96.8794 14.3066 97.1821 13.3691C97.4849 12.4316 97.9097 11.626 98.4565 10.9521C99.0132 10.2783 99.6724 9.76074 100.434 9.39941C101.196 9.03809 102.045 8.85742 102.983 8.85742C103.745 8.85742 104.433 8.96484 105.048 9.17969C105.664 9.39453 106.191 9.73633 106.63 10.2051C107.08 10.6738 107.421 11.2891 107.656 12.0508C107.9 12.8027 108.022 13.7305 108.022 14.834V25H104.125V14.8047C104.125 14.082 104.018 13.5107 103.803 13.0908C103.598 12.6709 103.295 12.373 102.895 12.1973C102.504 12.0215 102.021 11.9336 101.445 11.9336C100.849 11.9336 100.327 12.0557 99.8774 12.2998C99.438 12.5342 99.0669 12.8613 98.7642 13.2812C98.4712 13.7012 98.2466 14.1846 98.0903 14.7314C97.9341 15.2783 97.856 15.8691 97.856 16.5039ZM118.935 9.15039V11.9336H109.853V9.15039H118.935ZM112.285 5.25391H116.167V20.4297C116.167 20.8984 116.23 21.2598 116.357 21.5137C116.484 21.7676 116.674 21.9385 116.928 22.0264C117.182 22.1143 117.485 22.1582 117.836 22.1582C118.09 22.1582 118.325 22.1436 118.54 22.1143C118.754 22.085 118.935 22.0557 119.082 22.0264L119.096 24.9268C118.774 25.0342 118.408 25.1221 117.998 25.1904C117.597 25.2588 117.143 25.293 116.635 25.293C115.766 25.293 115.004 25.1465 114.35 24.8535C113.696 24.5508 113.188 24.0674 112.827 23.4033C112.465 22.7295 112.285 21.8408 112.285 20.7373V5.25391ZM128.632 25.293C127.431 25.293 126.352 25.0977 125.395 24.707C124.438 24.3164 123.623 23.7744 122.949 23.0811C122.285 22.3779 121.772 21.5625 121.411 20.6348C121.059 19.6973 120.883 18.6914 120.883 17.6172V17.0312C120.883 15.8105 121.059 14.7021 121.411 13.7061C121.762 12.7002 122.26 11.8359 122.905 11.1133C123.549 10.3906 124.321 9.83398 125.219 9.44336C126.118 9.05273 127.109 8.85742 128.193 8.85742C129.316 8.85742 130.307 9.04785 131.167 9.42871C132.026 9.7998 132.744 10.3271 133.32 11.0107C133.896 11.6943 134.331 12.5146 134.624 13.4717C134.917 14.4189 135.063 15.4688 135.063 16.6211V18.2471H122.641V15.5811H131.254V15.2881C131.235 14.6729 131.118 14.1113 130.903 13.6035C130.688 13.0859 130.356 12.6758 129.907 12.373C129.458 12.0605 128.876 11.9043 128.164 11.9043C127.587 11.9043 127.084 12.0312 126.655 12.2852C126.235 12.5293 125.883 12.8809 125.6 13.3398C125.327 13.7891 125.122 14.3262 124.985 14.9512C124.848 15.5762 124.78 16.2695 124.78 17.0312V17.6172C124.78 18.2812 124.868 18.8965 125.043 19.4629C125.229 20.0293 125.498 20.5225 125.849 20.9424C126.21 21.3525 126.64 21.6748 127.138 21.9092C127.646 22.1338 128.222 22.2461 128.867 22.2461C129.677 22.2461 130.41 22.0898 131.064 21.7773C131.728 21.4551 132.304 20.9814 132.792 20.3564L134.741 22.3779C134.409 22.8662 133.959 23.335 133.393 23.7842C132.836 24.2334 132.163 24.5996 131.372 24.8828C130.581 25.1562 129.667 25.293 128.632 25.293ZM141.523 12.3877V25H137.656V9.15039H141.318L141.523 12.3877ZM146.342 9.04785L146.284 12.6514C146.069 12.6123 145.825 12.583 145.551 12.5635C145.288 12.5439 145.039 12.5342 144.804 12.5342C144.208 12.5342 143.686 12.6172 143.237 12.7832C142.788 12.9395 142.412 13.1689 142.109 13.4717C141.816 13.7744 141.591 14.1455 141.435 14.585C141.279 15.0146 141.191 15.5029 141.171 16.0498L140.336 15.9473C140.336 14.9414 140.439 14.0088 140.644 13.1494C140.849 12.29 141.147 11.5381 141.538 10.8936C141.928 10.249 142.417 9.75098 143.002 9.39941C143.598 9.03809 144.282 8.85742 145.053 8.85742C145.268 8.85742 145.498 8.87695 145.742 8.91602C145.996 8.94531 146.196 8.98926 146.342 9.04785ZM152.333 12.1973V31.0938H148.452V9.15039H152.041L152.333 12.1973ZM162.514 16.9141V17.2217C162.514 18.374 162.377 19.4434 162.104 20.4297C161.84 21.4062 161.45 22.2607 160.932 22.9932C160.415 23.7158 159.77 24.2822 158.999 24.6924C158.237 25.0928 157.358 25.293 156.362 25.293C155.385 25.293 154.536 25.1074 153.813 24.7363C153.09 24.3555 152.48 23.8184 151.982 23.125C151.484 22.4316 151.083 21.626 150.781 20.708C150.488 19.7803 150.268 18.7695 150.122 17.6758V16.6943C150.268 15.5322 150.488 14.4775 150.781 13.5303C151.083 12.5732 151.484 11.748 151.982 11.0547C152.48 10.3516 153.085 9.80957 153.798 9.42871C154.521 9.04785 155.366 8.85742 156.333 8.85742C157.338 8.85742 158.222 9.04785 158.984 9.42871C159.755 9.80957 160.405 10.3564 160.932 11.0693C161.459 11.7822 161.855 12.6318 162.119 13.6182C162.382 14.6045 162.514 15.7031 162.514 16.9141ZM158.632 17.2217V16.9141C158.632 16.2109 158.569 15.5615 158.442 14.9658C158.315 14.3604 158.12 13.833 157.856 13.3838C157.592 12.9248 157.25 12.5684 156.831 12.3145C156.411 12.0605 155.903 11.9336 155.307 11.9336C154.711 11.9336 154.199 12.0312 153.769 12.2266C153.339 12.4219 152.988 12.7002 152.714 13.0615C152.441 13.4229 152.226 13.8525 152.07 14.3506C151.923 14.8389 151.826 15.3809 151.777 15.9766V18.4082C151.865 19.1309 152.036 19.7803 152.29 20.3564C152.543 20.9326 152.915 21.3916 153.403 21.7334C153.901 22.0752 154.545 22.2461 155.336 22.2461C155.932 22.2461 156.44 22.1143 156.86 21.8506C157.28 21.5869 157.622 21.2256 157.885 20.7666C158.149 20.2979 158.339 19.7607 158.457 19.1553C158.574 18.5498 158.632 17.9053 158.632 17.2217ZM169.208 12.3877V25H165.341V9.15039H169.003L169.208 12.3877ZM174.028 9.04785L173.969 12.6514C173.754 12.6123 173.51 12.583 173.237 12.5635C172.973 12.5439 172.724 12.5342 172.49 12.5342C171.894 12.5342 171.372 12.6172 170.922 12.7832C170.473 12.9395 170.097 13.1689 169.794 13.4717C169.501 13.7744 169.277 14.1455 169.121 14.585C168.964 15.0146 168.876 15.5029 168.857 16.0498L168.022 15.9473C168.022 14.9414 168.125 14.0088 168.33 13.1494C168.535 12.29 168.833 11.5381 169.223 10.8936C169.614 10.249 170.102 9.75098 170.688 9.39941C171.284 9.03809 171.967 8.85742 172.739 8.85742C172.954 8.85742 173.183 8.87695 173.427 8.91602C173.681 8.94531 173.881 8.98926 174.028 9.04785ZM180.253 9.15039V25H176.372V9.15039H180.253ZM176.108 5.00488C176.108 4.42871 176.303 3.9502 176.694 3.56934C177.094 3.18848 177.631 2.99805 178.305 2.99805C178.979 2.99805 179.511 3.18848 179.902 3.56934C180.302 3.9502 180.502 4.42871 180.502 5.00488C180.502 5.57129 180.302 6.04492 179.902 6.42578C179.511 6.80664 178.979 6.99707 178.305 6.99707C177.631 6.99707 177.094 6.80664 176.694 6.42578C176.303 6.04492 176.108 5.57129 176.108 5.00488ZM192.661 20.6641C192.661 20.332 192.573 20.0342 192.397 19.7705C192.221 19.5068 191.889 19.2676 191.401 19.0527C190.922 18.8281 190.219 18.6182 189.292 18.4229C188.471 18.2471 187.714 18.0273 187.021 17.7637C186.328 17.5 185.732 17.1826 185.234 16.8115C184.736 16.4307 184.345 15.9863 184.062 15.4785C183.789 14.9609 183.652 14.3652 183.652 13.6914C183.652 13.0371 183.793 12.4219 184.077 11.8457C184.36 11.2598 184.77 10.7471 185.307 10.3076C185.844 9.8584 186.499 9.50684 187.27 9.25293C188.042 8.98926 188.911 8.85742 189.877 8.85742C191.225 8.85742 192.382 9.07715 193.349 9.5166C194.326 9.95605 195.073 10.5615 195.59 11.333C196.108 12.0947 196.367 12.9541 196.367 13.9111H192.5C192.5 13.4912 192.402 13.1104 192.207 12.7686C192.021 12.4268 191.733 12.1533 191.342 11.9482C190.952 11.7334 190.458 11.626 189.863 11.626C189.326 11.626 188.872 11.7139 188.5 11.8896C188.139 12.0654 187.866 12.2949 187.68 12.5781C187.495 12.8613 187.402 13.1738 187.402 13.5156C187.402 13.7695 187.451 13.999 187.548 14.2041C187.656 14.3994 187.827 14.5801 188.061 14.7461C188.295 14.9121 188.613 15.0635 189.013 15.2002C189.423 15.3369 189.926 15.4688 190.522 15.5957C191.704 15.8301 192.734 16.1426 193.613 16.5332C194.501 16.9141 195.195 17.4219 195.693 18.0566C196.191 18.6914 196.44 19.502 196.44 20.4883C196.44 21.1914 196.289 21.8359 195.986 22.4219C195.683 22.998 195.244 23.501 194.667 23.9307C194.091 24.3604 193.403 24.6973 192.602 24.9414C191.801 25.1758 190.898 25.293 189.892 25.293C188.437 25.293 187.207 25.0342 186.201 24.5166C185.195 23.9893 184.433 23.3252 183.916 22.5244C183.398 21.7139 183.139 20.874 183.139 20.0049H186.845C186.875 20.6201 187.041 21.1133 187.343 21.4844C187.646 21.8555 188.027 22.124 188.486 22.29C188.955 22.4463 189.448 22.5244 189.965 22.5244C190.551 22.5244 191.044 22.4463 191.445 22.29C191.845 22.124 192.148 21.9043 192.353 21.6309C192.558 21.3477 192.661 21.0254 192.661 20.6641ZM206.503 25.293C205.302 25.293 204.223 25.0977 203.266 24.707C202.309 24.3164 201.494 23.7744 200.82 23.0811C200.156 22.3779 199.643 21.5625 199.282 20.6348C198.93 19.6973 198.754 18.6914 198.754 17.6172V17.0312C198.754 15.8105 198.93 14.7021 199.282 13.7061C199.633 12.7002 200.131 11.8359 200.776 11.1133C201.42 10.3906 202.192 9.83398 203.09 9.44336C203.989 9.05273 204.98 8.85742 206.064 8.85742C207.187 8.85742 208.178 9.04785 209.038 9.42871C209.897 9.7998 210.615 10.3271 211.191 11.0107C211.767 11.6943 212.202 12.5146 212.495 13.4717C212.788 14.4189 212.934 15.4688 212.934 16.6211V18.2471H200.512V15.5811H209.125V15.2881C209.106 14.6729 208.989 14.1113 208.774 13.6035C208.559 13.0859 208.227 12.6758 207.778 12.373C207.329 12.0605 206.748 11.9043 206.035 11.9043C205.458 11.9043 204.956 12.0312 204.526 12.2852C204.106 12.5293 203.754 12.8809 203.471 13.3398C203.198 13.7891 202.993 14.3262 202.856 14.9512C202.719 15.5762 202.651 16.2695 202.651 17.0312V17.6172C202.651 18.2812 202.739 18.8965 202.915 19.4629C203.1 20.0293 203.369 20.5225 203.72 20.9424C204.082 21.3525 204.511 21.6748 205.009 21.9092C205.517 22.1338 206.093 22.2461 206.738 22.2461C207.548 22.2461 208.281 22.0898 208.935 21.7773C209.599 21.4551 210.175 20.9814 210.664 20.3564L212.612 22.3779C212.28 22.8662 211.831 23.335 211.264 23.7842C210.708 24.2334 210.034 24.5996 209.243 24.8828C208.452 25.1562 207.539 25.293 206.503 25.293Z" fill="url(#paint0_linear_1_455)"/>
<path fill-rule="evenodd" clip-rule="evenodd" d="M57.4843 20.418H63.1421V11.6448H57.4843V20.418ZM63.1109 8.19813H67.4558V24.4914C67.4558 27.186 67.1745 27.656 66.4555 28.3767C65.8929 28.972 64.9864 29.254 63.4235 29.254H57.078L55.1087 27.0607V26.152H63.1109V23.9274H57.6406C55.9839 23.9274 55.14 23.614 54.4523 22.9247C53.5458 21.9847 53.1707 19.9481 53.1707 16.0941C53.1707 12.2401 53.6083 10.1095 54.546 9.13812C55.265 8.4488 56.1402 8.1668 57.7032 8.1668L60.954 8.19813L63.1109 10.1721V8.19813ZM11.847 3.87402H16.9734L9.59636 13.274L17.286 23.8959H11.847L6.00163 15.5613H4.62626V23.8959H0V3.87402H4.62626V11.6446H6.00163L11.847 3.87402ZM45.6061 13.1488V11.7074H44.0432C44.012 11.7074 44.012 11.7074 43.9807 11.7074H42.7616C42.7304 11.7074 42.7304 11.7074 42.6991 11.7074H40.2922V13.1488V23.8334H35.9785V8.19813H38.8231H40.2922V8.48013V10.1721L42.449 8.19813H43.6994C43.8869 8.1668 44.1057 8.1668 44.3246 8.1668H46.2001C47.5129 8.1668 48.3569 8.4488 48.9508 9.04413C49.6072 9.67079 49.8573 10.4855 49.8573 12.8041V23.8334H45.5436V13.3368C45.6061 13.2741 45.6061 13.2114 45.6061 13.1488ZM22.8813 20.3861H28.5391V11.6128H22.8813V20.3861ZM23.0689 23.8334C21.506 23.8334 20.662 23.5827 20.0055 22.862C19.0053 21.828 18.5989 20.4181 18.5989 16.0001C18.5989 11.5508 19.0053 10.1721 20.0055 9.10679C20.662 8.41746 21.506 8.1668 23.0689 8.1668H28.3203C29.8832 8.1668 30.7272 8.41746 31.3836 9.10679C32.3839 10.1721 32.7903 11.5508 32.7903 16.0001C32.7903 20.4494 32.3839 21.828 31.3836 22.862C30.6959 23.5827 29.8832 23.8334 28.3203 23.8334H23.0689Z" fill="#35363A"/>
<defs>
<linearGradient id="paint0_linear_1_455" x1="76.0005" y1="16.8" x2="241.861" y2="25.1607" gradientUnits="userSpaceOnUse">
<stop stop-color="#1456CB"/>
<stop offset="1" stop-color="#00E3C0"/>
</linearGradient>
</defs>
</svg>
