<svg width="104" height="35" viewBox="0 0 104 35" fill="none" xmlns="http://www.w3.org/2000/svg">
<path fill-rule="evenodd" clip-rule="evenodd" d="M95.1345 23.5867H100.126V15.8469H95.1345V23.5867ZM100.098 12.8063H103.932V27.1802C103.932 29.5574 103.683 29.972 103.049 30.6078C102.553 31.133 101.753 31.3818 100.374 31.3818H94.7762L93.0389 29.4468V28.6452H100.098V26.6826H95.2726C93.8111 26.6826 93.0665 26.4062 92.4598 25.7981C91.6601 24.9688 91.3292 23.1721 91.3292 19.7721C91.3292 16.3722 91.7153 14.4925 92.5425 13.6356C93.1768 13.0275 93.9489 12.7787 95.3277 12.7787L98.1957 12.8063L100.098 14.5478V12.8063ZM54.8734 8.9917H59.3959L52.8879 17.2843L59.6716 26.655H54.8734L49.7166 19.3022H48.5033V26.655H44.422V8.9917H48.5033V15.8469H49.7166L54.8734 8.9917ZM84.6558 17.1738V15.9022H83.2769C83.2494 15.9022 83.2494 15.9022 83.2218 15.9022H82.1463C82.1187 15.9022 82.1187 15.9022 82.0912 15.9022H79.9678V17.1738V26.5997H76.1623V12.8063H78.6717H79.9678V13.0551V14.5478L81.8706 12.8063H82.9736C83.1391 12.7787 83.3321 12.7787 83.5251 12.7787H85.1797C86.3379 12.7787 87.0825 13.0275 87.6064 13.5527C88.1855 14.1055 88.4061 14.8242 88.4061 16.8697V26.5997H84.6006V17.3396C84.6558 17.2843 84.6558 17.2291 84.6558 17.1738ZM64.6077 23.5589H69.599V15.8192H64.6077V23.5589ZM64.7734 26.5997C63.3946 26.5997 62.65 26.3786 62.0709 25.7428C61.1885 24.8306 60.83 23.5867 60.83 19.6892C60.83 15.764 61.1885 14.5478 62.0709 13.608C62.65 12.9998 63.3946 12.7787 64.7734 12.7787H69.4062C70.785 12.7787 71.5296 12.9998 72.1087 13.608C72.9911 14.5478 73.3496 15.764 73.3496 19.6892C73.3496 23.6144 72.9911 24.8306 72.1087 25.7428C71.502 26.3786 70.785 26.5997 69.4062 26.5997H64.7734Z" fill="white"/>
<path fill-rule="evenodd" clip-rule="evenodd" d="M11.6519 29.8067L12.607 28.6333H19.5927L23.2493 33.1631L22.6216 34.6912H13.5621L13.7804 33.1631L11.6519 29.8067Z" fill="#159ECB"/>
<path fill-rule="evenodd" clip-rule="evenodd" d="M14.2715 14.0889L17.5461 8.3584H21.3391L38.4213 28.5514L37.0842 34.6912H29.7711L30.2349 32.9721L14.2715 14.0889Z" fill="#0EB399"/>
<path fill-rule="evenodd" clip-rule="evenodd" d="M18.1736 6.9122L19.7291 4.04698L24.3134 0.28125L32.2269 6.53017L31.2172 7.5944L32.5816 9.50455V11.5784L28.6522 14.7984L22.0212 6.9122H18.1736Z" fill="#3DB664"/>
<path fill-rule="evenodd" clip-rule="evenodd" d="M5.67588 20.0102H7.83162L13.3983 15.2349L20.7661 23.9943L18.6922 27.2142H11.8702L7.17671 33.2994L6.11248 34.6911H0V27.2142L5.67588 20.0102Z" fill="#17BDCB"/>
</svg>
