<svg fill="none" height="35" viewBox="0 0 242 35" width="242" xmlns="http://www.w3.org/2000/svg" xmlns:xlink="http://www.w3.org/1999/xlink"><linearGradient id="a" gradientUnits="userSpaceOnUse" x1="76.0005" x2="241.861" y1="16.8" y2="25.1607"><stop offset="0" stop-color="#1456cb"/><stop offset="1" stop-color="#00e3c0"/></linearGradient><path d="m92.1724 21.8359v3.1641h-11.3379v-3.1641zm-10.1075-18.16402v21.32812h-4.0283v-21.32812zm8.628 8.80372v3.0908h-9.8584v-3.0908zm1.4355-8.80372v3.17871h-11.2939v-3.17871zm6.3428 8.86232v12.4658h-3.8672v-15.84961h3.6328zm-.6152 3.9697h-1.1426c.0097-1.1523.166-2.1973.4687-3.1348.3028-.9375.7276-1.7431 1.2744-2.417.5567-.6738 1.2159-1.19136 1.9775-1.55269.762-.36132 1.611-.54199 2.549-.54199.762 0 1.45.10742 2.065.32227.616.21484 1.143.55664 1.582 1.02541.45.4687.791 1.084 1.026 1.8457.244.7519.366 1.6797.366 2.7832v10.166h-3.897v-10.1953c0-.7227-.107-1.294-.322-1.7139-.205-.4199-.508-.7178-.908-.8935-.391-.1758-.874-.2637-1.45-.2637-.596 0-1.118.1221-1.5676.3662-.4394.2344-.8105.5615-1.1132.9814-.293.42-.5176.9034-.6739 1.4502-.1562.5469-.2343 1.1377-.2343 1.7725zm21.079-7.35351v2.78321h-9.082v-2.78321zm-6.65-3.89648h3.882v15.17579c0 .4687.063.8301.19 1.084s.317.4248.571.5127.557.1318.908.1318c.254 0 .489-.0146.704-.0439.214-.0293.395-.0586.542-.0879l.014 2.9004c-.322.1074-.688.1953-1.098.2636-.401.0684-.855.1026-1.363.1026-.869 0-1.631-.1465-2.285-.4395-.654-.3027-1.162-.7861-1.523-1.4502-.362-.6738-.542-1.5625-.542-2.666zm16.347 20.03909c-1.201 0-2.28-.1953-3.237-.586-.957-.3906-1.772-.9326-2.446-1.6259-.664-.7032-1.177-1.5186-1.538-2.4463-.352-.9375-.528-1.9434-.528-3.0176v-.586c0-1.2207.176-2.3291.528-3.3251.351-1.0059.849-1.8702 1.494-2.5928.644-.7227 1.416-1.27932 2.314-1.66994.899-.39063 1.89-.58594 2.974-.58594 1.123 0 2.114.19043 2.974.57129.859.37109 1.577.89839 2.153 1.58199s1.011 1.5039 1.304 2.461c.293.9472.439 1.9971.439 3.1494v1.626h-12.422v-2.666h8.613v-.293c-.019-.6152-.136-1.1768-.351-1.6846-.215-.5176-.547-.9277-.996-1.2305-.449-.3125-1.031-.4687-1.743-.4687-.577 0-1.08.1269-1.509.3809-.42.2441-.772.5957-1.055 1.0546-.273.4493-.478.9864-.615 1.6114s-.205 1.3183-.205 2.08v.586c0 .664.088 1.2793.263 1.8457.186.5664.455 1.0596.806 1.4795.361.4101.791.7324 1.289.9668.508.2246 1.084.3369 1.729.3369.81 0 1.543-.1563 2.197-.4688.664-.3222 1.24-.7959 1.728-1.4209l1.949 2.0215c-.332.4883-.782.9571-1.348 1.4063-.557.4492-1.23.8154-2.021 1.0986-.791.2734-1.705.4102-2.74.4102zm12.891-12.9053v12.6123h-3.867v-15.84961h3.662zm4.819-3.33985-.058 3.60355c-.215-.0391-.459-.0684-.733-.0879-.263-.0196-.512-.0293-.747-.0293-.596 0-1.118.083-1.567.249-.449.1563-.825.3857-1.128.6885-.293.3027-.518.6738-.674 1.1133-.156.4296-.244.9179-.264 1.4648l-.835-.1025c0-1.0059.103-1.9385.308-2.7979s.503-1.6113.894-2.2558c.39-.6446.879-1.14262 1.464-1.49419.596-.36132 1.28-.54199 2.051-.54199.215 0 .445.01953.689.0586.254.02929.454.07324.6.13183zm5.991 3.14945v18.8965h-3.881v-21.94341h3.589zm10.181 4.7168v.3076c0 1.1523-.137 2.2217-.41 3.208-.264.9765-.654 1.831-1.172 2.5635-.517.7226-1.162 1.289-1.933 1.6992-.762.4004-1.641.6006-2.637.6006-.977 0-1.826-.1856-2.549-.5567-.723-.3808-1.333-.9179-1.831-1.6113s-.899-1.499-1.201-2.417c-.293-.9277-.513-1.9385-.659-3.0322v-.9815c.146-1.1621.366-2.2168.659-3.164.302-.9571.703-1.7823 1.201-2.4756.498-.7031 1.103-1.24513 1.816-1.62599.723-.38086 1.568-.57129 2.535-.57129 1.005 0 1.889.19043 2.651.57129.771.38086 1.421.92769 1.948 1.64059s.923 1.5625 1.187 2.5489c.263.9863.395 2.0849.395 3.2959zm-3.882.3076v-.3076c0-.7032-.063-1.3526-.19-1.9483-.127-.6054-.322-1.1328-.586-1.582-.264-.459-.606-.8154-1.025-1.0693-.42-.254-.928-.3809-1.524-.3809s-1.108.0976-1.538.293c-.43.1953-.781.4736-1.055.8349-.273.3614-.488.791-.644 1.2891-.147.4883-.244 1.0303-.293 1.626v2.4316c.088.7227.259 1.3721.513 1.9482.253.5762.625 1.0352 1.113 1.377.498.3418 1.142.5127 1.933.5127.596 0 1.104-.1318 1.524-.3955s.762-.625 1.025-1.084c.264-.4687.454-1.0059.572-1.6113.117-.6055.175-1.25.175-1.9336zm10.576-4.834v12.6123h-3.867v-15.84961h3.662zm4.82-3.33985-.059 3.60355c-.215-.0391-.459-.0684-.732-.0879-.264-.0196-.513-.0293-.747-.0293-.596 0-1.118.083-1.568.249-.449.1563-.825.3857-1.128.6885-.293.3027-.517.6738-.673 1.1133-.157.4296-.245.9179-.264 1.4648l-.835-.1025c0-1.0059.103-1.9385.308-2.7979s.503-1.6113.893-2.2558c.391-.6446.879-1.14262 1.465-1.49419.596-.36132 1.279-.54199 2.051-.54199.215 0 .444.01953.688.0586.254.02929.454.07324.601.13183zm6.225.10254v15.84961h-3.881v-15.84961zm-4.145-4.14551c0-.57617.195-1.05468.586-1.43554.4-.38086.937-.57129 1.611-.57129s1.206.19043 1.597.57129c.4.38086.6.85937.6 1.43554 0 .56641-.2 1.04004-.6 1.4209-.391.38086-.923.57129-1.597.57129s-1.211-.19043-1.611-.57129c-.391-.38086-.586-.85449-.586-1.4209zm16.553 15.65922c0-.3321-.088-.6299-.264-.8936s-.508-.5029-.996-.7178c-.479-.2246-1.182-.4345-2.109-.6298-.821-.1758-1.578-.3956-2.271-.6592-.693-.2637-1.289-.5811-1.787-.9522-.498-.3808-.889-.8252-1.172-1.333-.273-.5176-.41-1.1133-.41-1.7871 0-.6543.141-1.2695.425-1.8457.283-.5859.693-1.0986 1.23-1.5381.537-.4492 1.192-.80076 1.963-1.05467.772-.26367 1.641-.39551 2.607-.39551 1.348 0 2.505.21973 3.472.65918.977.43945 1.724 1.0449 2.241 1.8164.518.7617.777 1.6211.777 2.5781h-3.867c0-.4199-.098-.8007-.293-1.1425-.186-.3418-.474-.6153-.865-.8204-.39-.2148-.884-.3222-1.479-.3222-.537 0-.991.0879-1.363.2636-.361.1758-.634.4053-.82.6885-.185.2832-.278.5957-.278.9375 0 .2539.049.4834.146.6885.108.1953.279.376.513.542s.552.3174.952.4541c.41.1367.913.2686 1.509.3955 1.182.2344 2.212.5469 3.091.9375.888.3809 1.582.8887 2.08 1.5234.498.6348.747 1.4454.747 2.4317 0 .7031-.151 1.3476-.454 1.9336-.303.5761-.742 1.0791-1.319 1.5088-.576.4297-1.264.7666-2.065 1.0107-.801.2344-1.704.3516-2.71.3516-1.455 0-2.685-.2588-3.691-.7764-1.006-.5273-1.768-1.1914-2.285-1.9922-.518-.8105-.777-1.6504-.777-2.5195h3.706c.03.6152.196 1.1084.498 1.4795.303.3711.684.6396 1.143.8056.469.1563.962.2344 1.479.2344.586 0 1.079-.0781 1.48-.2344.4-.166.703-.3857.908-.6591.205-.2832.308-.6055.308-.9668zm13.842 4.6289c-1.201 0-2.28-.1953-3.237-.586-.957-.3906-1.772-.9326-2.446-1.6259-.664-.7032-1.177-1.5186-1.538-2.4463-.352-.9375-.528-1.9434-.528-3.0176v-.586c0-1.2207.176-2.3291.528-3.3251.351-1.0059.849-1.8702 1.494-2.5928.644-.7227 1.416-1.27932 2.314-1.66994.899-.39063 1.89-.58594 2.974-.58594 1.123 0 2.114.19043 2.974.57129.859.37109 1.577.89839 2.153 1.58199s1.011 1.5039 1.304 2.461c.293.9472.439 1.9971.439 3.1494v1.626h-12.422v-2.666h8.613v-.293c-.019-.6152-.136-1.1768-.351-1.6846-.215-.5176-.547-.9277-.996-1.2305-.449-.3125-1.03-.4687-1.743-.4687-.577 0-1.079.1269-1.509.3809-.42.2441-.772.5957-1.055 1.0546-.273.4493-.478.9864-.615 1.6114s-.205 1.3183-.205 2.08v.586c0 .664.088 1.2793.264 1.8457.185.5664.454 1.0596.805 1.4795.362.4101.791.7324 1.289.9668.508.2246 1.084.3369 1.729.3369.81 0 1.543-.1563 2.197-.4688.664-.3222 1.24-.7959 1.729-1.4209l1.948 2.0215c-.332.4883-.781.9571-1.348 1.4063-.556.4492-1.23.8154-2.021 1.0986-.791.2734-1.704.4102-2.74.4102z" fill="url(#a)"/><path clip-rule="evenodd" d="m57.4843 20.4183h5.6578v-8.7733h-5.6578zm5.6266-12.21993h4.3449v16.29323c0 2.6947-.2813 3.1647-1.0003 3.8853-.5626.5953-1.4691.8773-3.032.8773h-6.3455l-1.9693-2.1933v-.9086h8.0022v-2.2247h-5.4703c-1.6567 0-2.5006-.3133-3.1883-1.0026-.9065-.94-1.2816-2.9767-1.2816-6.8307 0-3.8539.4376-5.9846 1.3753-6.95593.719-.68933 1.5942-.97133 3.1572-.97133l3.2508.03133 2.1569 1.97403zm-51.2639-4.3241h5.1264l-7.37704 9.39993 7.68964 10.622h-5.439l-5.84537-8.3347h-1.37537v8.3347h-4.62626v-20.02193h4.62626v7.77063h1.37537zm33.7591 9.27473v-1.4413h-1.5629c-.0312 0-.0312 0-.0625 0h-1.2191c-.0312 0-.0312 0-.0625 0h-2.4069v1.4413 10.6846h-4.3137v-15.63523h2.8446 1.4691v.282 1.69203l2.1568-1.97403h1.2504c.1875-.03133.4063-.03133.6252-.03133h1.8755c1.3128 0 2.1568.282 2.7507.87733.6564.62666.9065 1.44133.9065 3.75993v11.0293h-4.3137v-10.4966c.0625-.0627.0625-.1253.0625-.188zm-22.7248 7.2373h5.6578v-8.7732h-5.6578zm.1876 3.4473c-1.5629 0-2.4069-.2507-3.0634-.9713-1.0002-1.034-1.4066-2.444-1.4066-6.862 0-4.4493.4064-5.8279 1.4066-6.89326.6565-.68933 1.5005-.94 3.0634-.94h5.2514c1.5629 0 2.4069.25067 3.0633.94 1.0003 1.06536 1.4067 2.44396 1.4067 6.89326s-.4064 5.828-1.4067 6.862c-.6877.7206-1.5004.9713-3.0633.9713z" fill="#35363a" fill-rule="evenodd"/></svg>